<?xml version="1.0" encoding="utf-8"?>
<!-- Generator: Adobe Illustrator 25.4.1, SVG Export Plug-In . SVG Version: 6.00 Build 0)  -->
<svg version="1.1" id="Layer_1" xmlns="http://www.w3.org/2000/svg" xmlns:xlink="http://www.w3.org/1999/xlink" x="0px" y="0px"
	 viewBox="0 0 128 128" style="enable-background:new 0 0 128 128;" xml:space="preserve">
<style type="text/css">
	.st0{fill:#FE0606;}
</style>
<path class="st0" d="M63.7,127.7c-35.5,0-63.3-28.1-63.3-63.9C0.6,28.6,29.2,0.3,64.4,0.4s63.4,28.7,63.3,63.9l0,0l0,0
	C127.5,99.7,99.5,127.7,63.7,127.7z M110.3,39.4c-9.8,14.4-23.9,20.1-40.9,19.5c-4.7-0.1-9.3,0-14.1,0c-13.5-0.1-26.7,3.2-38.4,9.4
	c-5,2.6-5.4,5.4-4.1,10.2c1.2,3.9,2.3,4.1,5.6,1.8c8.3-6.1,17.7-9.1,27.8-10.2c10.1-1.2,20.1-0.4,30-0.8
	c11.8-0.4,23.2-4.7,32.2-12.2c7.8-6.2,8-9.1,2.5-17.5C110.7,39.7,110.6,39.5,110.3,39.4L110.3,39.4z M116.9,64.1
	c-7.8,5.8-15.3,10.5-24.1,13.2C81.1,80.8,69,79.8,57,79.9s-23.4,2.8-33.8,9.4c-4,2.6-3.8,4.4-1,7.5c2.5,2.8,4.3,4.7,7.8,1.2
	c3-2.8,7.1-4.3,11.1-5.6c9.6-3.1,19.5-1.8,29.4-2.1c11.5-0.1,22.8-1.3,33.3-6.2C116.3,78.5,116.3,80.9,116.9,64.1L116.9,64.1z
	 M10.7,57.9c2.5,0.9,3.9-0.5,5.6-1.3c6.1-2.7,12.4-4.9,18.9-6.5c12.6-3,25.2-1.9,37.9-2.1C82.8,47.9,91,45,97.8,38
	c7.1-7.2,6.9-10.2-1.4-15.9c-0.3-0.1-0.6-0.3-1-0.4C91.2,33,82.9,37.7,71,37.3c-14.2-0.4-28.3-0.1-42.3,3.4
	c-9.1,2.6-17.6,5-17.7,16.7C10.9,57.5,10.8,57.6,10.7,57.9L10.7,57.9z M105.8,95.2c-9.6,3.8-19.8,5.8-30,6c-8.2,0.3-16.4,0-24.6,0.3
	c-6.2,0.1-12.2,2.3-16.7,6.5C62.9,127.3,97,112.1,105.8,95.2L105.8,95.2z M23.1,30.8c5.6-1,9.8-1.9,14.4-2.6
	c11.5-1.9,23-0.9,34.6-1.2c6.5-0.1,10.9-2.6,12.4-7.4c0.9-2.6,0.9-4.4-2.5-5.7C62.2,6.4,37.1,13,23.1,30.8L23.1,30.8z"/>
</svg>
