<svg xmlns="http://www.w3.org/2000/svg" viewBox="0 0 126.64 126.69"><defs><style>.cls-1{fill:#fe0606;}</style></defs><g id="Layer_2" data-name="Layer 2"><g id="Layer_1-2" data-name="Layer 1"><path class="cls-1" d="M63,126.69c-35.35,0-63-28-63-63.65a63.32,63.32,0,0,1,126.64.56h0C126.62,98.88,98.56,126.69,63,126.69Zm46.43-87.85c-9.8,14.35-23.8,20-40.77,19.45-4.66-.15-9.32,0-14,0a81,81,0,0,0-38.3,9.4c-5,2.62-5.44,5.45-4.09,10.13,1.1,3.83,2.28,4.18,5.5,1.8,8.19-6.07,17.63-9,27.72-10.2s20-.39,29.92-.72a53,53,0,0,0,32.07-12.08c7.67-6.15,7.94-9,2.45-17.38-.05-.17-.21-.23-.49-.43ZM116,63.5C108.32,69.26,100.82,74,92.1,76.62c-11.75,3.5-23.77,2.47-35.72,2.59S33.09,82,22.75,88.6c-4,2.53-3.73,4.34-1.07,7.51,2.41,2.87,4.19,4.62,7.73,1.22,3-2.89,7.13-4.2,11.09-5.49,9.58-3.12,19.48-1.83,29.26-2,11.43-.14,22.68-1.31,33.11-6.21,12.56-5.87,12.46-3.42,13.18-20.16ZM10.2,57.35c2.48.87,3.92-.52,5.52-1.25a101.66,101.66,0,0,1,18.8-6.48c12.48-3,25.15-1.92,37.76-2,9.64-.07,17.88-3.07,24.65-10,7.06-7.24,6.82-10.18-1.47-15.87a4.35,4.35,0,0,0-1-.33c-4.15,11.3-12.36,16-24.28,15.63-14.12-.44-28.24-.18-42.1,3.38-8.93,2.3-17.43,4.75-17.53,16.36,0,.07-.15.2-.34.53Zm94.8,37a86.86,86.86,0,0,1-30,6c-8.15.29-16.32,0-24.48.3a25.35,25.35,0,0,0-16.67,6.49C62.3,126.37,96.18,111.28,105,94.38Zm-82.39-64c5.48-1,9.85-1.9,14.24-2.63,11.41-1.9,22.92-.92,34.39-1.16,6.48-.14,10.81-2.63,12.43-7.3.89-2.56.86-4.36-2.46-5.64-19.67-7.6-44.65-1-58.57,16.69Z"/></g></g></svg>