<svg id="Layer_1" data-name="Layer 1" xmlns="http://www.w3.org/2000/svg" viewBox="0 0 512.05 126.59"><defs><style>.cls-1{fill:#fe0606;}.cls-2{fill:#060606;}</style></defs><path class="cls-1" d="M345,602c-35.35,0-63-28-63-63.65a63.32,63.32,0,0,1,126.64.56C408.62,574.19,380.56,602,345,602Zm46.43-87.85c-9.8,14.35-23.8,20-40.77,19.45-4.66-.15-9.32,0-14,0a81.06,81.06,0,0,0-38.3,9.4c-5,2.62-5.44,5.45-4.09,10.13,1.1,3.83,2.28,4.18,5.5,1.8,8.19-6.07,17.63-9,27.72-10.2s20-.39,29.92-.72a53,53,0,0,0,32.07-12.08c7.67-6.15,7.94-9,2.45-17.38C391.88,514.38,391.72,514.32,391.44,514.12Zm6.61,24.66c-7.72,5.76-15.22,10.51-23.94,13.12-11.75,3.5-23.77,2.47-35.72,2.59s-23.29,2.82-33.63,9.39c-4,2.53-3.73,4.34-1.07,7.51,2.41,2.87,4.19,4.62,7.73,1.22,3-2.89,7.13-4.2,11.09-5.49,9.58-3.12,19.48-1.83,29.26-2,11.43-.14,22.68-1.31,33.11-6.21C397.43,553.07,397.33,555.52,398.05,538.78Zm-105.84-6.15c2.48.87,3.92-.52,5.52-1.25a101.89,101.89,0,0,1,18.8-6.48c12.48-3,25.15-1.92,37.76-2,9.64-.07,17.88-3.07,24.65-10,7.06-7.24,6.82-10.18-1.47-15.87a3.94,3.94,0,0,0-1-.33c-4.15,11.3-12.36,16-24.28,15.63-14.12-.44-28.24-.18-42.1,3.38-8.93,2.3-17.43,4.75-17.53,16.36C292.54,532.17,292.4,532.3,292.21,532.63ZM387,569.69a86.82,86.82,0,0,1-30,6c-8.15.29-16.32,0-24.48.3a25.36,25.36,0,0,0-16.67,6.49C344.3,601.68,378.18,586.59,387,569.69Zm-82.39-64c5.48-1,9.85-1.9,14.24-2.63,11.41-1.9,22.92-.92,34.39-1.16,6.48-.14,10.81-2.63,12.43-7.3.89-2.56.86-4.36-2.46-5.64C343.54,481.36,318.56,488,304.64,505.65Z" transform="translate(-282.05 -475.38)"/><path class="cls-2" d="M663.27,521.79l-11.41,17.26c-5.76,8.71-8.67,8.72-14.2,0L625,519.19c0,12.52,0,23.58,0,34.65,0,1.8.21,3.62-.54,5.4a4.83,4.83,0,0,1-5.12,3.14,4.51,4.51,0,0,1-4.43-3.37,1.65,1.65,0,0,1-.14-.48c-.72-18.61-.86-37.23.06-55.83.24-4.73,6.07-6.19,9.54-2.79a30.46,30.46,0,0,1,3.75,5.25c5.51,8.48,11,17,16.94,26.17,2-3,3.71-5.47,5.39-8,4.91-7.32,9.75-14.67,14.74-21.93,1.55-2.26,3.62-4.11,6.72-2.95,2.79,1,4.08,3.19,4.07,6.21,0,17.14,0,34.28,0,51.42,0,3.61-1.52,6.17-5.5,6.29-4.28.13-6-2.54-6-6.35-.09-11.29,0-22.59,0-33.89Z" transform="translate(-282.05 -475.38)"/><path class="cls-2" d="M757.32,519c6.8-6.78,14.68-8.22,22.77-4.66,8.73,3.84,13.21,11.26,13.89,20.85.38,5.38-.07,10.62-2.55,15.53-6.84,13.48-20.59,16.56-33.88,7.29-1,4.16-.26,8.22-.46,12.21-.09,1.66,0,3.33-.07,5-.23,3.49-2.16,5.67-5.65,5.72-3.76,0-5.28-2.64-5.3-6-.08-18.46-.05-36.92,0-55.38,0-3.23,1.62-5.59,4.82-6C754.39,513,756.36,515.17,757.32,519Zm13.11,3.7c-7.82-.12-13.46,5.92-13.61,14.59-.16,9.34,5.33,16,13.28,16.06,7.58.07,13.53-6.74,13.53-15.49S778,522.76,770.43,522.65Z" transform="translate(-282.05 -475.38)"/><path class="cls-2" d="M722.7,517.64c1.41-3.54,3.52-5.59,7.35-4.71,4.19,1,4,4.25,4,7.49q0,17.48,0,35c0,2.79-.26,5.55-3.28,6.6s-5.65.53-7.09-2.73c-1-2.24-2.06-.7-3,0-15.52,10.78-32.91-.55-34.56-18.15-.76-8.08,1-15.67,6.8-21.67C701.26,510.84,711.29,510.27,722.7,517.64Zm-12.67,5c-7.91,0-13.36,6.33-13.27,15.4.09,8.71,5.59,15.08,13.11,15.21s13.59-6.54,13.67-15.31S717.89,522.65,710,522.67Z" transform="translate(-282.05 -475.38)"/><path class="cls-2" d="M583.33,563.45c-13.76-.27-23.48-8-25.43-19.61-2.35-14,3.73-25.6,15.64-29.91,14.5-5.25,30.77,6.46,30.59,21.94,0,4.68-2.81,6-6.81,6-8.49,0-17,.14-25.48,0-3.56-.06-3.47,1.14-2.1,3.72,3.75,7,13,9.85,20.82,6.16,1.35-.64,2.65-1.38,4-2,2.38-1.08,4.16-.23,5.6,1.78s1,3.82-.45,5.46C595.17,562.19,589,563.09,583.33,563.45Zm-2.64-31v-.06c3,0,6-.1,9,0s3-1.37,1.94-3.38a11.25,11.25,0,0,0-10.47-6.43c-4.93,0-9.18,1.37-11.52,6.27-1.12,2.34-1.19,3.76,2.08,3.6C574.69,532.37,577.7,532.49,580.69,532.49Z" transform="translate(-282.05 -475.38)"/><path class="cls-2" d="M457,563.41c-13.9.29-25.93-7.11-30.72-18.87-5.23-12.89-2.38-28.62,6.82-37.49,9.67-9.33,25.72-11.89,38-6.05,2.92,1.38,4.38,3.4,3.18,6.76s-3.57,4.45-7,3.29a32.6,32.6,0,0,0-6.68-1.87c-8.78-1-16.92.65-21.63,8.9-4.89,8.55-4.57,17.63.48,26.06,4.19,7,15.4,10,24.15,7.22,1.57-.5,3.14-1,4.75-1.39,3.16-.7,5,.88,6.15,3.68,1.18,3-.53,4.77-2.64,6.27C469,562,462.92,563.29,457,563.41Z" transform="translate(-282.05 -475.38)"/><path class="cls-2" d="M516.42,519.84c1.48-1.22,2.39-1.91,3.24-2.66,5.87-5.16,12.65-5.78,19.62-3.22,6.32,2.32,8.19,8.2,8.5,14.09.52,9.63.3,19.3.25,29,0,3.29-1.83,5.33-5.26,5.37-4,0-5.61-2.53-5.66-6.11-.11-7.32,0-14.65-.06-22,0-8.17-2.66-11.52-9-11.67-7.16-.16-11.62,4.21-11.76,11.82-.13,7,0,14,0,21,0,3.65-.78,6.84-5.26,6.94-4.71.1-5.76-3.2-5.77-7-.05-11.65,0-23.3,0-34.94,0-3.55,1.27-6.51,5-6.9S516,515.53,516.42,519.84Z" transform="translate(-282.05 -475.38)"/><path class="cls-2" d="M483,538.13c0-6,.09-12,0-17.94-.07-4,1.68-6.8,5.58-6.77s5.54,3,5.52,6.89c-.07,11.79,0,23.59,0,35.39,0,3.76-1.27,6.69-5.6,6.65s-5.46-3-5.44-6.77C483,549.76,483,544,483,538.13Z" transform="translate(-282.05 -475.38)"/><path class="cls-2" d="M489,507.15c-3.85.24-6.28-.69-6.3-5.06,0-4.19,2.14-5.49,5.82-5.5s5.87,1.36,5.71,5.54C494.09,505.87,492.66,507.75,489,507.15Z" transform="translate(-282.05 -475.38)"/></svg>